<!--?xml version="1.0" encoding="utf-8"?-->
<!-- Generator: Adobe Illustrator 15.1.0, SVG Export Plug-In . SVG Version: 6.00 Build 0)  -->

<svg version="1.1" id="_x32_" xmlns="http://www.w3.org/2000/svg" xmlns:xlink="http://www.w3.org/1999/xlink" x="0px" y="0px" width="512px" height="512px" viewBox="0 0 512 512" style="width: 256px; height: 256px; opacity: 1;" xml:space="preserve">
<style type="text/css">

	.st0{fill:#4B4B4B;}

</style>
<g>
	<path class="st0" d="M510.947,196.797c-2.75-8.609-10.672-14.609-19.781-14.922l-160.484-5.141l-54.453-151
		c-3.063-8.516-11.188-14.25-20.25-14.25c-9.047,0-17.172,5.734-20.219,14.219l-54.453,151.031l-160.563,5.141
		c-9.016,0.313-16.922,6.297-19.672,14.781c-2.844,8.641,0.094,18.172,7.25,23.703l126.813,98.453L90.432,472.938
		c-2.578,8.688,0.625,18.109,8.016,23.5c7.234,5.203,17.438,5.328,24.688,0.359l132.844-90.188l132.828,90.172
		c3.578,2.438,7.766,3.734,12.094,3.734c4.547,0,8.906-1.422,12.672-4.125c7.313-5.328,10.516-14.734,7.984-23.375l-44.719-154.203
		l126.766-98.422C510.822,214.813,513.76,205.266,510.947,196.797z M438.479,211.922L276.713,264.5l41.391-56.984
		c1.5,0.391,3.031,0.656,4.641,0.703L438.479,211.922z M343.697,316.406c0.094,1.547,0.297,3.078,0.734,4.578l32.266,111.219
		l-99.922-137.531L343.697,316.406z M167.525,321.047c0.453-1.531,0.656-3.078,0.75-4.641l66.922-21.734l-99.906,137.516
		L167.525,321.047z M303.197,194.063c0.547,1.484,1.266,2.844,2.094,4.125l-41.375,56.953V85.109L303.197,194.063z M248.057,85.141
		v170l-41.375-56.953c0.828-1.297,1.563-2.672,2.109-4.172L248.057,85.141z M189.213,208.219c1.609-0.047,3.141-0.313,4.641-0.703
		l41.391,56.969l-161.75-52.563L189.213,208.219z M68.666,227.031l161.656,52.531l-66.906,21.75
		c-0.984-1.203-2.078-2.344-3.344-3.313L68.666,227.031z M148.119,441.5l99.938-137.563v70.422
		c-1.438,0.563-2.844,1.234-4.141,2.109L148.119,441.5z M263.916,374.359v-70.422l99.922,137.547l-95.813-65.047
		C266.729,375.578,265.354,374.922,263.916,374.359z M351.994,297.938c-1.297,0.984-2.406,2.141-3.422,3.375l-66.922-21.75
		l161.656-52.531L351.994,297.938z" style="fill: rgb(75, 75, 75);"></path>
</g>
</svg>
